<?xml version="1.0" standalone="no"?>
<!DOCTYPE svg PUBLIC "-//W3C//DTD SVG 20010904//EN"
 "http://www.w3.org/TR/2001/REC-SVG-20010904/DTD/svg10.dtd">
<svg version="1.0" xmlns="http://www.w3.org/2000/svg"
 width="1007.000000pt" height="1280.000000pt" viewBox="0 0 1007.000000 1280.000000"
 preserveAspectRatio="xMidYMid meet">
<metadata>
Created by potrace 1.15, written by Peter Selinger 2001-2017
</metadata>
<g transform="translate(0.000000,1280.000000) scale(0.100000,-0.100000)"
fill="#000000" stroke="none">
<path d="M4889 12796 c-3 -4 -43 -13 -87 -21 -138 -24 -330 -114 -407 -190
-39 -39 -58 -69 -82 -132 -59 -152 -66 -212 -60 -532 3 -163 10 -301 16 -320
6 -19 29 -53 50 -75 33 -34 101 -149 101 -171 0 -3 21 -39 46 -81 65 -107 74
-134 74 -216 -1 -100 -20 -136 -126 -239 -154 -148 -303 -257 -380 -278 -37
-10 -60 -24 -180 -111 l-49 -35 -109 3 -110 3 -65 -69 c-39 -40 -93 -114 -130
-178 -45 -76 -88 -132 -140 -185 -79 -78 -166 -211 -196 -298 -9 -25 -24 -61
-33 -79 -22 -45 -198 -230 -332 -347 -60 -53 -111 -103 -113 -113 -3 -9 -11
-39 -18 -66 -11 -44 -30 -67 -153 -194 -77 -79 -158 -153 -181 -164 -117 -60
-409 -343 -856 -828 -214 -232 -327 -346 -446 -447 -34 -29 -88 -85 -120 -125
-98 -121 -145 -140 -215 -91 l-38 26 -25 -23 c-20 -19 -25 -33 -25 -71 0 -41
-4 -51 -32 -74 -17 -14 -50 -35 -73 -46 -45 -21 -77 -55 -226 -244 -132 -166
-134 -170 -120 -201 18 -39 13 -73 -20 -156 -31 -79 -32 -104 -4 -114 21 -8
48 18 98 91 43 63 134 165 148 165 11 0 -19 -81 -80 -220 -28 -63 -51 -125
-51 -137 0 -31 18 -38 41 -17 31 28 141 180 203 281 66 106 83 124 97 102 14
-20 3 -107 -30 -241 -16 -64 -27 -125 -24 -136 5 -22 29 -36 44 -26 16 10 45
75 89 200 23 67 52 138 63 157 12 20 56 62 97 95 41 32 144 125 228 205 83 81
157 147 162 147 6 0 29 17 53 39 23 21 76 59 117 84 41 25 118 80 170 123 52
42 178 132 280 200 102 68 205 142 230 164 55 50 313 245 430 325 136 94 226
174 370 331 194 210 723 711 789 746 21 11 25 10 43 -12 55 -68 171 -339 252
-589 113 -345 149 -546 150 -836 1 -154 -2 -204 -18 -262 -20 -81 -22 -74 49
-197 22 -37 29 -65 32 -120 5 -75 -7 -123 -62 -255 -15 -35 -34 -110 -42 -165
-22 -149 -56 -270 -101 -366 -65 -138 -70 -161 -42 -226 l22 -55 -31 -57
c-124 -228 -266 -529 -357 -761 -25 -64 -54 -134 -64 -156 -10 -22 -28 -76
-40 -120 -12 -44 -38 -122 -56 -174 -26 -71 -34 -109 -34 -161 0 -124 -50
-340 -102 -445 -17 -33 -75 -130 -128 -216 -54 -85 -110 -179 -124 -207 -25
-49 -56 -95 -178 -264 -27 -36 -85 -106 -129 -155 -98 -108 -171 -213 -280
-403 -190 -331 -404 -814 -574 -1295 -92 -259 -174 -425 -269 -545 -71 -89
-97 -132 -141 -237 -20 -48 -74 -107 -149 -162 -69 -51 -121 -113 -142 -168
-16 -41 -16 -44 2 -64 10 -12 36 -30 57 -41 22 -11 58 -36 80 -57 23 -21 52
-43 63 -49 24 -12 139 -27 300 -38 l100 -6 49 53 c98 109 105 123 105 209 0
85 10 106 92 200 56 63 73 102 92 201 40 211 109 344 344 659 161 215 247 321
411 500 208 229 293 355 401 597 106 238 151 326 185 364 19 22 35 45 35 52 0
8 16 28 35 46 19 17 41 46 48 64 8 18 38 61 68 96 92 108 193 245 405 546 245
350 262 371 317 387 39 11 342 15 522 6 l60 -3 63 124 c106 211 366 625 430
684 36 34 32 35 202 -43 69 -31 150 -65 179 -75 123 -40 204 -166 296 -457 55
-177 46 -168 161 -168 123 0 118 3 227 -145 167 -229 327 -477 409 -635 32
-63 33 -68 30 -173 -2 -105 -1 -111 32 -185 19 -42 51 -135 71 -207 58 -208
151 -477 193 -562 50 -97 100 -166 239 -325 183 -209 332 -416 468 -653 82
-142 214 -412 221 -454 4 -20 22 -74 39 -121 18 -47 36 -105 40 -130 4 -25 13
-64 21 -87 7 -23 21 -123 29 -222 9 -99 19 -199 23 -223 l8 -43 279 2 c430 2
1116 43 1391 83 195 28 242 54 193 106 -41 44 -159 93 -298 124 -163 37 -248
70 -473 182 -223 112 -335 186 -447 297 -90 90 -227 254 -253 306 -44 84 -212
586 -258 770 -12 47 -34 110 -50 140 -15 29 -47 114 -70 187 -78 248 -190 510
-308 722 -34 60 -73 143 -88 185 -15 42 -42 112 -61 156 -60 138 -92 230 -124
357 -41 166 -90 294 -155 410 -35 61 -58 118 -65 155 -12 63 -6 213 13 304 10
48 8 66 -10 135 -11 43 -25 111 -31 149 -11 77 -129 464 -187 615 -44 113
-152 343 -193 410 -17 27 -37 77 -46 111 -9 34 -39 119 -67 188 -28 69 -59
150 -69 180 -11 30 -34 77 -51 105 l-33 50 0 356 0 357 -57 110 c-195 376
-457 1235 -389 1277 22 14 224 -247 319 -409 71 -122 113 -175 272 -338 187
-194 396 -389 629 -591 96 -83 230 -199 297 -258 68 -59 138 -114 157 -121 18
-8 49 -28 68 -44 59 -51 82 -63 120 -63 31 0 43 -7 73 -42 20 -23 36 -45 36
-49 0 -13 150 -197 235 -289 85 -92 187 -213 279 -332 32 -42 70 -82 83 -89
22 -12 27 -11 39 6 25 35 16 74 -41 168 -30 50 -53 93 -50 96 3 2 20 -9 38
-26 17 -17 60 -51 94 -75 34 -23 98 -71 143 -105 81 -63 125 -78 136 -48 14
34 -13 73 -139 203 -72 74 -126 137 -120 139 18 6 88 -38 229 -143 138 -103
178 -117 190 -69 3 14 3 36 0 51 -8 32 -98 121 -261 258 -175 147 -179 151
-149 180 34 35 99 17 315 -85 147 -69 202 -83 213 -53 21 56 -115 162 -381
298 -157 80 -228 162 -190 219 16 25 127 87 192 107 64 20 154 71 181 102 44
54 21 118 -31 84 -15 -10 -118 -33 -253 -56 -125 -21 -267 -46 -317 -55 -146
-27 -173 -17 -331 121 -40 34 -82 68 -94 74 -44 23 -330 322 -392 408 -185
259 -414 548 -519 657 -136 140 -185 202 -194 247 -4 18 -20 48 -36 68 -16 20
-33 56 -37 82 -5 26 -19 64 -32 85 -12 21 -23 49 -24 63 -1 14 -20 50 -43 80
-52 69 -64 99 -184 470 -112 343 -143 416 -260 598 -45 70 -92 143 -105 163
-42 66 -253 188 -390 224 -32 9 -112 20 -177 25 -102 7 -121 12 -146 33 -16
13 -65 45 -109 71 -94 55 -138 100 -149 153 -13 63 -10 445 4 469 7 12 28 40
47 63 55 66 78 151 83 311 4 112 1 152 -17 235 -11 55 -32 159 -46 230 -13 72
-29 153 -35 181 -27 137 -169 347 -302 447 -94 72 -287 154 -308 133z"/>
</g>
</svg>
